<svg xmlns="http://www.w3.org/2000/svg" viewBox="0 0 214.19 97.83"><defs><style>.cls-1{fill:#0a3585;}.cls-2{fill:#093485;}.cls-3{fill:#1d1612;}.cls-4{fill:#201a16;}.cls-5{fill:#1e1714;}.cls-6{fill:#201916;}.cls-7{fill:#241c18;}.cls-8{fill:#3d3b3a;}</style></defs><g id="Слой_2" data-name="Слой 2"><g id="Слой_1-2" data-name="Слой 1"><path class="cls-1" d="M200.14,70.12c-34.22,33.95-142.39,39.71-188.79.35,9.82,0,18.84,0,27.85,0a4.9,4.9,0,0,1,2.59,1.29C58.23,84.94,77.59,90,98,91.16c23.71,1.37,47.08-1.51,66.85-15.63C176.23,67.41,187.61,72.29,200.14,70.12Z"/><path class="cls-2" d="M200.06,27.84c-8.16-.06-16.33,0-24.49-.22a9,9,0,0,1-5.07-1.36C152.45,12.19,131.36,7.38,109.2,6.78,88.26,6.2,67.63,9.37,49.86,21.07c-8,5.24-15.5,7.29-24.49,6.66-4.31-.31-8.66-.06-14.56-.06,4.15-2.94,7.13-5.32,10.36-7.29,17.69-10.8,37.24-16,57.56-18.51C111.62-2.14,144-.19,175,12.51c9,3.71,17,10,25.53,15.07l-.37-.12Z"/><path class="cls-3" d="M69.88,64l-6.11-.16L62.6,62.57c0-8-.12-16-.09-24,0-2.62,0-5.55,4.15-3.45a2.57,2.57,0,0,0,1.94.12C76.11,31.9,79.87,36,83,42.11c2.25,4.43,5,8.61,7.93,13.6,3.58-5.91,7-11.48,10.33-17.06,1.78-2.94,3.51-5.9,7.7-3.45a1.91,1.91,0,0,0,1,.07c9-.65,9-.65,9,8.34V63c-7.15,3.09-9.19,1.9-9.19-5.22V38.34c-4.65,8-8.69,14.73-12.41,21.59-1.57,2.89-3.17,4.61-6.84,4.51s-5.39-1.51-6.87-4.55c-2.47-5.07-5.32-9.94-8-14.89l-.81-1.46,0,0L72.6,38.3l-2.11.4Z"/><path class="cls-4" d="M171.7,63.76c-5.86.83-10.58,1.95-13-4.57-1.16-3.08-19-2.88-20.43.19-2.46,5.49-6.54,4.2-11.48,3.51,4.92-8.78,9.38-17.16,14.28-25.27,2.58-4.28,13.22-4.29,15.8,0C161.88,45.93,166.49,54.53,171.7,63.76ZM148.35,39.44c-2.44,4.64-4.54,8.64-6.77,12.9h13.51Z"/><path class="cls-5" d="M194.4,52.58C183,65,183,65,174.55,63.7l12.87-14.93L175.82,35.2l.36-1.24c3.63.6,7.76.32,10.74,2,3.19,1.85,5.28,5.58,7.7,8.33,2.87-2.7,5.25-5.68,8.31-7.58,2.64-1.66,6-2.09,9.12-3.06l.62,1.52L202,48.41l12.21,15.15C202.69,67.5,200,57.92,194.4,52.58Z"/><path class="cls-6" d="M0,58c6.58.61,11.78,1.39,17,1.38,1.62,0,3.24-2.11,4.86-3.26-1.41-1.21-2.66-2.75-4.28-3.58-4.45-2.27-9.33-3.8-13.5-6.46C.52,43.8,1,39.42,4.26,36.82c4.36-3.45,18.29-4.7,23.09-1.72,1.16.72,1.44,2.86,2.38,4.88-5.16-.7-9-1.58-12.94-1.6-1.85,0-3.7,1.65-5.54,2.54,1.45,1.35,2.69,3.2,4.4,3.94,3.49,1.5,7.51,1.89,10.78,3.7,2.31,1.29,5.23,4.18,5.19,6.31,0,2.47-2.49,6-4.83,7.11-7.61,3.8-15.8,3.46-23.74.82C1.71,62.36,1.08,59.79,0,58Z"/><path class="cls-7" d="M41,34.37H50.7c0,9.39.08,18.49-.14,27.58,0,.8-1.9,2.08-3,2.23-2.06.28-4.21-.13-6.51-.26Z"/><path class="cls-8" d="M69.88,64q.32-12.65.61-25.31l2.11-.4,2.25,5.28c-.77-1.06-1.55-2.11-3.14-4.27,0,7.52.11,14-.08,20.43C71.59,61.18,70.49,62.59,69.88,64Z"/></g></g></svg>