<?xml version="1.0" encoding="utf-8"?>
<!-- Generator: Adobe Illustrator 25.0.0, SVG Export Plug-In . SVG Version: 6.00 Build 0)  -->
<svg version="1.1" id="_x2DC__x5F_x2021_x5F__x5F_xF8FF_x5F__x5F_x5F_x5F_1"
	 xmlns="http://www.w3.org/2000/svg" xmlns:xlink="http://www.w3.org/1999/xlink" x="0px" y="0px" viewBox="0 0 5379.2 3293.2"
	 style="enable-background:new 0 0 5379.2 3293.2;" xml:space="preserve">
<style type="text/css">
	.st0{fill:#F7F7F7;}
</style>
<g>
	<rect x="4441.9" y="187.1" class="st0" width="94.7" height="170.7"/>
	<rect x="4419.4" y="262.7" class="st0" width="139.7" height="95.1"/>
	<rect x="4379.4" y="353.5" class="st0" width="219.7" height="144"/>
	<path class="st0" d="M4379.4,497.6h72.4c20.6,0,37.4-16.7,37.4-37.4V353.5h-109.8V497.6z"/>
	<rect x="4392.7" y="349.3" class="st0" width="193" height="8.6"/>

		<rect x="4481.8" y="189.6" transform="matrix(9.058429e-02 -0.9959 0.9959 9.058429e-02 3813.5254 4716.4629)" class="st0" width="14.9" height="161.2"/>

		<rect x="4481.8" y="219" transform="matrix(9.059168e-02 -0.9959 0.9959 9.059168e-02 3784.145 4743.2568)" class="st0" width="14.9" height="161.2"/>

		<rect x="4481.8" y="248.5" transform="matrix(9.058368e-02 -0.9959 0.9959 9.058368e-02 3754.8333 4770.062)" class="st0" width="14.9" height="161.2"/>
	<path class="st0" d="M4473.1,187.1h32.2c5.4,0,9.7-4.3,9.7-9.7l0,0c0-5.4-4.3-9.7-9.7-9.7h-32.2c-5.4,0-9.7,4.3-9.7,9.7l0,0
		C4463.4,182.8,4467.7,187.1,4473.1,187.1z"/>
	<g>
		<polygon class="st0" points="4146.2,249.9 4175.1,220.9 4616.5,220.9 4627.1,231.5 4648.2,210.3 4628.9,191 4162.7,191
			4125,228.7 		"/>
	</g>
	<g>
		<rect x="4428.9" y="191" class="st0" width="120.9" height="29.9"/>
	</g>
	<rect x="4266.8" y="497.6" class="st0" width="444.9" height="241.8"/>
	<rect x="4266.8" y="618.5" class="st0" width="444.9" height="120.9"/>
	<g>
		<polygon class="st0" points="4774.2,498.5 4774.2,738.5 4760.7,792.9 4662.6,792.9 4649.2,738.5 4649.2,498.5 4652.5,485.1
			4662.6,444.1 4760.7,444.1 4770.8,485.1 		"/>
		<ellipse class="st0" cx="4711.7" cy="618.5" rx="76.3" ry="98.7"/>
		<path class="st0" d="M4770.8,485.1c-1.6,19.1-5.4,38.1-11.3,56.5h-95.6c-6.1-18.3-9.8-37.4-11.3-56.5l10.1-41h98.1L4770.8,485.1z"
			/>
		<path class="st0" d="M4770.8,751.9c-1.6-19.1-5.4-38.1-11.3-56.5h-95.6c-6.1,18.3-9.8,37.4-11.3,56.5l10.1,41h98.1L4770.8,751.9z"
			/>
	</g>
	<g>
		<polygon class="st0" points="4329.3,498.5 4329.3,738.5 4315.8,792.9 4217.8,792.9 4204.3,738.5 4204.3,498.5 4207.7,485.1
			4217.8,444.1 4315.8,444.1 4325.9,485.1 		"/>
		<ellipse class="st0" cx="4266.8" cy="618.5" rx="76.3" ry="98.7"/>
		<path class="st0" d="M4325.9,485.1c-1.6,19.1-5.4,38.1-11.3,56.5H4219c-6.1-18.3-9.8-37.4-11.3-56.5l10.1-41h98.1L4325.9,485.1z"
			/>
		<path class="st0" d="M4325.9,751.9c-1.6-19.1-5.4-38.1-11.3-56.5H4219c-6.1,18.3-9.8,37.4-11.3,56.5l10.1,41h98.1L4325.9,751.9z"
			/>
	</g>
	<path class="st0" d="M4379.4,453.1L4379.4,453.1v44.5h-44.5l0,0C4359.5,497.6,4379.4,477.7,4379.4,453.1z"/>
	<path class="st0" d="M4599.1,453.1L4599.1,453.1v44.5h44.5l0,0C4619,497.6,4599.1,477.7,4599.1,453.1z"/>
	<rect x="4328.9" y="470.8" class="st0" width="14.2" height="295.5"/>
	<rect x="4634" y="470.8" class="st0" width="14.2" height="295.5"/>
	<path class="st0" d="M4489.2,703.9c-69.7,0-124.4-37.5-124.4-85.4c0-47.9,54.6-85.4,124.4-85.4c69.7,0,124.4,37.5,124.4,85.4
		C4613.6,666.4,4559,703.9,4489.2,703.9z"/>
	<path class="st0" d="M4588.7,618.5c0,33.4-44.5,60.5-99.4,60.5s-99.4-27.1-99.4-60.5c0-33.4,44.5-60.5,99.4-60.5
		S4588.7,585.1,4588.7,618.5z"/>
</g>
<g>
	<g>
		<rect x="1335.7" y="2338.8" class="st0" width="310.1" height="83.2"/>
		<rect x="1522.6" y="2338.8" class="st0" width="123.2" height="83.2"/>
		<rect x="1355.9" y="2422.1" class="st0" width="269.8" height="26.3"/>
		<rect x="1518.5" y="2422.1" class="st0" width="107.2" height="26.3"/>
		<rect x="1335.7" y="1676.2" class="st0" width="310.1" height="83.2"/>
		<rect x="1510.6" y="1676.2" class="st0" width="135.3" height="83.2"/>
		<g>
			<rect x="1335.7" y="1659.6" class="st0" width="309" height="17.4"/>
		</g>
	</g>

		<ellipse transform="matrix(0.7071 -0.7071 0.7071 0.7071 -1020.7519 1657.3762)" class="st0" cx="1490.3" cy="2060.8" rx="201.2" ry="201.2"/>
	<circle class="st0" cx="1490.3" cy="2060.8" r="154.5"/>
	<polygon class="st0" points="1560.9,2183.2 1631.5,2060.8 1560.9,1938.5 1419.6,1938.5 1349,2060.8 1419.6,2183.2 	"/>
	<circle class="st0" cx="1490.8" cy="2060.8" r="120"/>
	<path class="st0" d="M965.1,2123.2h667.6c16.5,0,29.9-13.4,29.9-29.9v-65c0-16.5-13.4-29.9-29.9-29.9H965.1
		c-16.5,0-29.9,13.4-29.9,29.9v65C935.2,2109.8,948.6,2123.2,965.1,2123.2z"/>
	<path class="st0" d="M965.1,1998.5h365.3v124.7H965.1c-16.5,0-29.9-13.4-29.9-29.9v-65C935.2,2011.9,948.6,1998.5,965.1,1998.5z"/>
	<path class="st0" d="M965.1,1998.5h207.2v124.7H965.1c-16.5,0-29.9-13.4-29.9-29.9v-65C935.2,2011.9,948.6,1998.5,965.1,1998.5z"/>
	<path class="st0" d="M1405.8,2060.8c0,47,38.1,85,85,85c47,0,85-38.1,85-85c0-47-38.1-85-85-85
		C1443.8,1975.8,1405.8,2013.9,1405.8,2060.8z"/>

		<ellipse transform="matrix(0.9782 -0.2077 0.2077 0.9782 -395.4432 354.4867)" class="st0" cx="1490.8" cy="2060.8" rx="56.3" ry="56.3"/>
	<circle class="st0" cx="1490.8" cy="2060.8" r="40.1"/>
</g>
<g>
	<g>
		<path class="st0" d="M5379.2,511.9v214.4H4114.5c-59.1,0-107.2,48.1-107.2,107.2v147.3c0,177.3-144.3,321.7-321.7,321.7H1701.9
			c-59.1,0-107.2,48.1-107.2,107.2v1233.7c0,177.3-144.3,321.7-586.4,321.7H0v-214.4h1008.4c323.8,0,371.9-48.1,371.9-107.2V1409.8
			c0-177.3,144.3-321.7,321.7-321.7h1983.6c59.1,0,107.2-48,107.2-107.2V833.6c0-177.3,144.3-321.7,321.7-321.7H5379.2z"/>
		<g>
			<path class="st0" d="M5379.2,619.2v107.2H4114.5c-59.1,0-107.2,48.1-107.2,107.2v147.3c0,177.3-144.3,321.7-321.7,321.7H1701.9
				c-59.1,0-107.2,48.1-107.2,107.2v1233.7c0,177.3-144.3,321.7-321.7,321.7H0V2858h1273c118.3,0,214.4-96.2,214.4-214.4V1409.8
				c0-118.3,96.2-214.4,214.4-214.4h1983.6c118.3,0,214.4-96.2,214.4-214.4V833.6c0-118.3,96.2-214.4,214.4-214.4H5379.2z"/>
		</g>
		<path class="st0" d="M1851,1088.2c68,52.4,60.9,176.8-20.8,214.4h564.6c-95.4-25.3-111.1-154.8-47.1-214.4H1851z"/>
		<path class="st0" d="M1153.2,2750.8H652.5c70.9,48.9,67.5,172.5-9.9,214.4h520.4C1085.4,2923.3,1082.2,2799.7,1153.2,2750.8z"/>
	</g>
	<g>
		<path class="st0" d="M1999.8,731.7v1795c0,160.7,130.8,291.5,291.5,291.5h181.5c53.5,0,97.2,43.6,97.2,97.2v377.8h194.3v-377.8
			c0-160.7-130.8-291.5-291.5-291.5h-181.5c-53.5,0-97.2-43.6-97.2-97.2v-1795c0-53.5,43.6-97.2,97.2-97.2h181.5
			c160.7,0,291.5-130.8,291.5-291.5V0H2570v343c0,53.5-43.6,97.2-97.2,97.2h-181.5C2130.6,440.2,1999.8,571,1999.8,731.7z"/>
		<g>
			<path class="st0" d="M1999.8,731.7v1795c0,160.7,130.8,291.5,291.5,291.5h181.5c53.5,0,97.2,43.6,97.2,97.2v377.8h97.2v-377.8
				c0-107.2-87.2-194.3-194.3-194.3h-181.5c-107.2,0-194.3-87.2-194.3-194.3v-1795c0-107.2,87.2-194.3,194.3-194.3h181.5
				c107.2,0,194.3-87.2,194.3-194.3V0H2570v343c0,53.5-43.6,97.2-97.2,97.2h-181.5C2130.6,440.2,1999.8,571,1999.8,731.7z"/>
		</g>
		<path class="st0" d="M2472.8,634.5h-86.2V440.2h86.2c53.5,0,97.2-43.6,97.2-97.2v-68.1l20.6,20.6c59.6,59.6,138.1,31,173.7-23.5
			v71C2764.3,503.7,2633.5,634.5,2472.8,634.5z"/>
		<path class="st0" d="M2291.3,440.2h77.6v194.3h-77.6c-53.5,0-97.2,43.6-97.2,97.2v1795c0,53.5,43.6,97.2,97.2,97.2h181.5
			c160.7,0,291.5,130.8,291.5,291.5v141.7c-44.9-63.8-157-60.2-194.3,10.7v-152.4c0-53.5-43.6-97.2-97.2-97.2h-181.5
			c-160.7,0-291.5-130.8-291.5-291.5v-1795C1999.8,571,2130.6,440.2,2291.3,440.2z"/>
	</g>
</g>
</svg>
