<?xml version="1.0" encoding="utf-8"?>
<!-- Generator: Adobe Illustrator 25.0.0, SVG Export Plug-In . SVG Version: 6.00 Build 0)  -->
<svg version="1.1" id="Layer_1" xmlns="http://www.w3.org/2000/svg" xmlns:xlink="http://www.w3.org/1999/xlink" x="0px" y="0px"
	 viewBox="0 0 66.6 94.9" style="enable-background:new 0 0 66.6 94.9;" xml:space="preserve" fill="#033284" width="24px">
<g>
	<path d="M15.3,77.8v5.9c0,2.7,2.2,4.8,4.8,4.8h6.1l0.5,1.5c1,2.9,3.6,4.9,6.6,4.9s5.6-2,6.6-4.9l0.5-1.5h6.1c2.7,0,4.8-2.2,4.8-4.8
		v-5.9H15.3z"/>
	<path d="M13,59.6c1.4,1.1,2.3,3,2.3,5.1v6h36v-6.2c0-2,0.8-3.8,2.2-4.8c8.3-6.4,13.1-16,13.1-26.4C66.6,23.1,62,13.6,54,7.2
		C48,2.5,40.9,0,33.3,0c-2.7,0-5.3,0.3-8,0.9C13.5,3.7,4,13.1,1,24.8C-2.2,38.1,2.3,51.4,13,59.6z M33.3,56.1
		c-2.6,0-4.7-2.1-4.7-4.7c0-2.6,2.1-4.7,4.7-4.7c2.6,0,4.7,2.1,4.7,4.7S35.9,56.1,33.3,56.1z M32.8,16.3c2.7-0.3,5.1,1.7,5.4,4.5
		c0,0.3,0,0.6,0,0.9l-1.6,17.6c-0.2,1.8-1.8,3.1-3.6,3c-1.6-0.1-2.8-1.4-3-3l-1.6-17.6C28.1,19,30.1,16.6,32.8,16.3z"/>
</g>
</svg>
