<?xml version="1.0" encoding="utf-8"?>
<!-- Generator: Adobe Illustrator 25.0.0, SVG Export Plug-In . SVG Version: 6.00 Build 0)  -->
<svg version="1.1" id="Layer_1" xmlns="http://www.w3.org/2000/svg" xmlns:xlink="http://www.w3.org/1999/xlink" x="0px" y="0px"
	 viewBox="0 0 62 62" style="enable-background:new 0 0 62 62;" xml:space="preserve">
<style type="text/css">
	.st0{fill:#9AD00F;}
</style>
<g>
	<path class="st0" d="M41,0C29.4,0,20,9.4,20,21c0,4.7,1.6,9,4.2,12.6l-3.6,3.6L19,35.6L1.5,53.1c-1,1-1.5,2.3-1.5,3.7
		C0,59.6,2.4,62,5.2,62c1.4,0,2.7-0.5,3.7-1.5L26.4,43l-1.6-1.6l3.6-3.6C32,40.4,36.3,42,41,42c11.6,0,21-9.4,21-21S52.6,0,41,0z
		 M7.5,59.1C6.9,59.7,6.1,60,5.2,60C3.5,60,2,58.5,2,56.8c0-0.9,0.3-1.7,0.9-2.3l16.1-16l4.6,4.6L7.5,59.1z M23.4,40L22,38.6
		l3.5-3.5c0.4,0.5,0.9,1,1.4,1.4L23.4,40z M41,40c-10.5,0-19-8.5-19-19S30.5,2,41,2s19,8.5,19,19S51.5,40,41,40z"/>
	<path class="st0" d="M34.6,20.2C32.5,20.8,31,22.8,31,25v5h20v-5c0-2.2-1.5-4.2-3.6-4.8l-3.4-1V19c1.2-0.9,2-2.4,2-4v-1.8
		c0-2.7-2-5-4.6-5.2c-1.4-0.1-2.8,0.4-3.8,1.3c-1,0.9-1.6,2.3-1.6,3.7v2c0,1.6,0.8,3,2,4v0.3L34.6,20.2z M39.5,17.6
		C38.6,17,38,16.1,38,15v-2c0-0.8,0.4-1.6,1-2.2c0.6-0.6,1.4-0.8,2.3-0.8c1.5,0.1,2.7,1.5,2.7,3.2V15c0,1.1-0.6,2-1.5,2.6L42,17.9
		v2.9l4.8,1.4c1.3,0.4,2.2,1.6,2.2,2.9v3H33v-3c0-1.3,0.9-2.5,2.2-2.9l4.8-1.4v-2.9L39.5,17.6z"/>
	<circle class="st0" cx="5" cy="57" r="1"/>
	<path class="st0" d="M53.7,9.8l-1.5,1.3c5.2,5.9,5,14.9-0.6,20.5C46,37.2,37,37.5,31.1,32.2l-1.3,1.5C33,36.6,37,38,41,38
		c4.4,0,8.7-1.7,12-5C59.4,26.7,59.7,16.5,53.7,9.8z"/>
	<path class="st0" d="M30.4,10.4C36,4.8,45,4.5,50.9,9.8l1.3-1.5C45.5,2.3,35.3,2.6,29,9s-6.6,16.5-0.7,23.3l1.5-1.3
		C24.5,25,24.8,16,30.4,10.4z"/>
	<rect x="14" class="st0" width="2" height="2"/>
	<rect x="14" y="4" class="st0" width="2" height="2"/>
	<rect x="16" y="2" class="st0" width="2" height="2"/>
	<rect x="12" y="2" class="st0" width="2" height="2"/>
	<rect x="2" y="14" class="st0" width="2" height="2"/>
	<rect x="2" y="18" class="st0" width="2" height="2"/>
	<rect x="4" y="16" class="st0" width="2" height="2"/>
	<rect y="16" class="st0" width="2" height="2"/>
	<rect x="13" y="28" class="st0" width="2" height="2"/>
	<rect x="13" y="32" class="st0" width="2" height="2"/>
	<rect x="15" y="30" class="st0" width="2" height="2"/>
	<rect x="11" y="30" class="st0" width="2" height="2"/>
	<rect x="58" y="46" class="st0" width="2" height="2"/>
	<rect x="58" y="50" class="st0" width="2" height="2"/>
	<rect x="60" y="48" class="st0" width="2" height="2"/>
	<rect x="56" y="48" class="st0" width="2" height="2"/>
	<rect x="40" y="56" class="st0" width="2" height="2"/>
	<rect x="40" y="60" class="st0" width="2" height="2"/>
	<rect x="42" y="58" class="st0" width="2" height="2"/>
	<rect x="38" y="58" class="st0" width="2" height="2"/>
	<rect x="30" y="43" class="st0" width="2" height="2"/>
	<rect x="30" y="47" class="st0" width="2" height="2"/>
	<rect x="32" y="45" class="st0" width="2" height="2"/>
	<rect x="28" y="45" class="st0" width="2" height="2"/>
</g>
</svg>
