<?xml version="1.0" encoding="utf-8"?>
<!-- Generator: Adobe Illustrator 25.0.0, SVG Export Plug-In . SVG Version: 6.00 Build 0)  -->
<svg version="1.1" id="Layer_1" xmlns="http://www.w3.org/2000/svg" xmlns:xlink="http://www.w3.org/1999/xlink" x="0px" y="0px"
	 viewBox="0 0 62 62" style="enable-background:new 0 0 62 62;" xml:space="preserve">
<style type="text/css">
	.st0{fill:#9AD00F;}
</style>
<g>
	<path class="st0" d="M56.9,47.5L49,45.2v-2c1.1-0.8,1.9-2,2.4-3.2H52c2.2,0,4-1.8,4-4v-8c0-6.3-4.9-11.5-11.1-12
		C41.9,6.6,33,0,23,0C10.3,0,0,10.3,0,23s10.3,23,23,23c5.1,0,10.1-1.7,14.1-4.9c0.5,0.8,1.1,1.5,1.9,2.1v2l-7.9,2.3
		c-3,0.9-5.1,3.6-5.1,6.7V62h36v-7.7C62,51.2,59.9,48.4,56.9,47.5z M49.8,47.6l-1.3,4.7l-3-2.4l2.8-2.8L49.8,47.6z M43.7,56h0.6
		l1.3,4h-3.2L43.7,56z M44.6,54h-1.2l-1.2-1.2l1.8-1.5l1.8,1.5L44.6,54z M52,38L52,38c0-0.3,0-0.7,0-1v-3c1.1,0,2,0.9,2,2
		S53.1,38,52,38z M54,28v4.6c-0.6-0.3-1.3-0.6-2-0.6h-0.2c-0.4-1.2-1.5-2-2.8-2h-3.6c-0.8,0-1.5-0.2-2.2-0.5L41,28.4
		c-0.5-0.2-1-0.4-1.5-0.4c-1.9,0-3.4,1.5-3.4,3.4V32c-0.7,0-1.4,0.2-2,0.6v-7.4c0-1.5,0.9-2.8,2.3-3.2l0.3-0.1l0.2-0.2
		c1.7-2.3,4.4-3.6,7.2-3.6C49.5,18,54,22.5,54,28z M32,25.2V36c0,0.4,0.1,0.9,0.2,1.3C29.5,39,26.3,40,23,40c-9.4,0-17-7.6-17-17
		S13.6,6,23,6c7.2,0,13.6,4.5,16,11.2c-1.4,0.7-2.6,1.7-3.6,2.9C33.3,21,32,22.9,32,25.2z M34,36c0-1.1,0.9-2,2-2v3
		c0,0.3,0,0.7,0.1,1H36C34.9,38,34,37.1,34,36z M2,23C2,11.4,11.4,2,23,2c8.9,0,16.9,5.7,19.8,14.1c-0.7,0.1-1.3,0.2-2,0.4
		C38.1,9,31.1,4,23,4C12.5,4,4,12.5,4,23s8.5,19,19,19c3.7,0,7.2-1.1,10.3-3.1c0.6,0.5,1.3,0.9,2.1,1C31.8,42.6,27.5,44,23,44
		C11.4,44,2,34.6,2,23z M38,37v-5.6c0-0.8,0.6-1.4,1.4-1.4c0.2,0,0.4,0.1,0.6,0.2l2.2,1.1c1,0.5,2,0.7,3.1,0.7H49c0.6,0,1,0.4,1,1v4
		c0,3.3-2.7,6-6,6S38,40.3,38,37z M44,45c1.1,0,2.1-0.2,3-0.6v1.2l-3,3l-3-3v-1.2C41.9,44.8,42.9,45,44,45z M39.7,47.1l2.8,2.8
		l-3,2.4l-1.3-4.7L39.7,47.1z M28,54.3c0-2.2,1.5-4.2,3.6-4.8l4.7-1.3l2.2,7.6l2.1-1.7l1.3,1.3L40.3,60H34v-5h-2v5h-4V54.3z M60,60
		h-4v-5h-2v5h-6.3l-1.6-4.7l1.3-1.3l2.1,1.7l2.2-7.6l4.7,1.3c2.1,0.6,3.6,2.6,3.6,4.8V60z"/>
	<path class="st0" d="M24,20.2V8h-2v12.2c-1.2,0.4-2,1.5-2,2.8c0,0.5,0.1,1,0.3,1.4l-6.1,7l1.5,1.3l6-6.9c0.4,0.2,0.8,0.3,1.2,0.3
		c1.7,0,3-1.3,3-3C26,21.7,25.2,20.6,24,20.2z M23,24c-0.6,0-1-0.4-1-1s0.4-1,1-1s1,0.4,1,1S23.6,24,23,24z"/>
	<path class="st0" d="M1.8,36.3L0,33.4V43h2v-3c5.1,6.3,12.7,10,21,10v-2C14.4,48,6.5,43.6,1.8,36.3z"/>
	<rect x="28" y="22" class="st0" width="2" height="2"/>
	<rect x="16" y="22" class="st0" width="2" height="2"/>
</g>
</svg>
