<?xml version="1.0" encoding="utf-8"?>
<!-- Generator: Adobe Illustrator 25.0.0, SVG Export Plug-In . SVG Version: 6.00 Build 0)  -->
<svg version="1.1" id="Layer_1" xmlns="http://www.w3.org/2000/svg" xmlns:xlink="http://www.w3.org/1999/xlink" x="0px" y="0px"
	 viewBox="0 0 52 62" style="enable-background:new 0 0 52 62;" xml:space="preserve">
<style type="text/css">
	.st0{fill:#9AD00F;}
</style>
<g>
	<path class="st0" d="M46,12.6V4H31.9c-0.5-2.3-2.5-4-4.9-4s-4.4,1.7-4.9,4H0v52h6v6h46V18.6L46,12.6z M44,13.4l4.6,4.6H44V13.4z
		 M44,10.6L43.4,10H32V6h12V10.6z M2,54V6h20v4H6v44H2z M8,60V12h14v3c0,1.7,1.3,3,3,3s3-1.3,3-3V6h-2v9c0,0.6-0.4,1-1,1s-1-0.4-1-1
		V5c0-1.7,1.3-3,3-3s3,1.3,3,3v13h2v-6h10v8h8v40H8z"/>
	<path class="st0" d="M29,50c8.3,0,15-6.7,15-15s-6.7-15-15-15s-15,6.7-15,15S20.7,50,29,50z M29,48c-3.7,0-7-1.5-9.4-4h18.7
		C36,46.5,32.7,48,29,48z M27.5,33.6C26.6,33,26,32.1,26,31v-2c0-0.8,0.4-1.6,1-2.2s1.4-0.8,2.3-0.8c1.5,0.1,2.7,1.5,2.7,3.2V31
		c0,1.1-0.6,2-1.5,2.6L30,33.9v2.9l4.8,1.4c1.3,0.4,2.2,1.6,2.2,2.9v1H21v-1c0-1.3,0.9-2.5,2.2-2.9l4.8-1.4v-2.9L27.5,33.6z M29,22
		c7.2,0,13,5.8,13,13c0,3.2-1.1,6-3,8.3V41c0-2.2-1.5-4.2-3.6-4.8l-3.4-1V35c1.2-0.9,2-2.4,2-4v-1.8c0-2.7-2-5-4.6-5.2
		c-1.4-0.1-2.8,0.4-3.8,1.3S24,27.6,24,29v2c0,1.6,0.8,3,2,4v0.3l-3.4,1C20.5,36.8,19,38.8,19,41v2.3c-1.9-2.3-3-5.1-3-8.3
		C16,27.8,21.8,22,29,22z"/>
	<rect x="10" y="52" class="st0" width="38" height="2"/>
	<rect x="10" y="56" class="st0" width="34" height="2"/>
	<rect x="46" y="56" class="st0" width="2" height="2"/>
</g>
</svg>
