<?xml version="1.0" encoding="utf-8"?>
<!-- Generator: Adobe Illustrator 25.0.0, SVG Export Plug-In . SVG Version: 6.00 Build 0)  -->
<svg version="1.1" id="Layer_1" xmlns="http://www.w3.org/2000/svg" xmlns:xlink="http://www.w3.org/1999/xlink" x="0px" y="0px"
	 viewBox="0 0 62 62" style="enable-background:new 0 0 62 62;" xml:space="preserve">
<style type="text/css">
	.st0{fill:#9AD00F;}
</style>
<g>
	<path class="st0" d="M55.9,42.5l-5.3-5.3l-2.1,1.3L47.8,36H45v-2H13v14h18v4.8l2.4,0.6l-1.3,2.1l5.3,5.3l2.1-1.3l0.6,2.4h7.6
		l0.6-2.4l2.1,1.3l5.3-5.3l-1.3-2.1l2.4-0.6v-7.6l-2.4-0.6L55.9,42.5z M45,49c0,0.6-0.4,1-1,1s-1-0.4-1-1s0.4-1,1-1S45,48.4,45,49z
		 M43,46H23v-4h20V46z M39.1,48h2.1c-0.1,0.3-0.2,0.6-0.2,1c0,1.7,1.3,3,3,3s3-1.3,3-3c0-1.3-0.8-2.4-2-2.8v-2.1
		c2.3,0.5,4,2.5,4,4.9c0,2.8-2.2,5-5,5s-5-2.2-5-5C39,48.7,39,48.3,39.1,48z M43,40H23v-4h20V40z M21,36v4h-6v-4H21z M15,42h6v4h-6
		V42z M55,46.8v4.4l-1.9,0.5l-0.5,0.2L52.1,53l1.3,2.2l-3.1,3.1L48,57.1l-1.2,0.5L46.2,60h-4.4l-0.6-2.4L40,57.1l-2.2,1.3l-3.1-3.1
		l1.3-2.2l-0.5-1.2L33,51.2V48h4.1c0,0.3-0.1,0.7-0.1,1c0,3.9,3.1,7,7,7s7-3.1,7-7c0-3.5-2.6-6.4-6-6.9V38h1.2l0.6,2.4l1.2,0.5
		l2.2-1.3l3.1,3.1l-1.3,2.2l0.5,1.2L55,46.8z"/>
	<path class="st0" d="M30,20v10h32V20H30z M32,22h6v6h-6V22z M60,28H40v-6h20V28z"/>
	<rect x="27" y="50" class="st0" width="2" height="2"/>
	<rect x="23" y="50" class="st0" width="2" height="2"/>
	<path class="st0" d="M2,47V29c0-1.7,1.3-3,3-3h13v4.6L29.2,25L18,19.4V24H5c-2.8,0-5,2.2-5,5v18c0,2.8,2.2,5,5,5h16v-2H5
		C3.3,50,2,48.7,2,47z M20,22.6l4.8,2.4L20,27.4V22.6z"/>
	<path class="st0" d="M38,0H6v14h32V0z M36,6H16V2h20V6z M14,2v4H8V2H14z M8,8h6v4H8V8z M16,12V8h20v4H16z"/>
	<rect x="48" y="24" class="st0" width="2" height="2"/>
	<rect x="52" y="24" class="st0" width="2" height="2"/>
	<rect x="56" y="24" class="st0" width="2" height="2"/>
	<rect x="40" y="6" class="st0" width="2" height="2"/>
	<path class="st0" d="M54,9v3h-4l5,6.7l5-6.7h-4V9c0-1.7-1.3-3-3-3h-9v2h9C53.6,8,54,8.4,54,9z M55,15.3L54,14h2L55,15.3z"/>
</g>
</svg>
