<?xml version="1.0" encoding="utf-8"?>
<!-- Generator: Adobe Illustrator 25.0.0, SVG Export Plug-In . SVG Version: 6.00 Build 0)  -->
<svg version="1.1" id="Layer_1" xmlns="http://www.w3.org/2000/svg" xmlns:xlink="http://www.w3.org/1999/xlink" x="0px" y="0px"
	 viewBox="0 0 62 62" style="enable-background:new 0 0 62 62;" xml:space="preserve">
<g>
	<path d="M56.6,49.8c1.4-1.1,2.4-2.8,2.4-4.8c0-3-2.2-5.4-5-5.9V38c0-2.8-2.2-5-5-5H32v-3.6c0.5,0.4,1.2,0.6,1.9,0.6
		c1.7,0,3.1-1.3,3.1-3c1.6-0.1,2.9-1.4,3-3c1.6-0.1,2.9-1.4,3-3c1.7-0.1,3-1.4,3-3.1c0-0.8-0.3-1.6-0.9-2.2l-0.2-0.2
		c1.4-1.7,2.1-3.8,2.1-6C47,4.3,42.7,0,37.5,0c-2.4,0-4.7,0.9-6.5,2.6C29.2,0.9,26.9,0,24.5,0C19.3,0,15,4.3,15,9.5
		c0,2.5,0.9,4.8,2.6,6.5c-0.4,0.5-0.6,1.2-0.6,1.9c0,1.7,1.3,3.1,3,3.1c0.1,1.6,1.4,2.9,3,3c0.1,1.6,1.4,2.9,3,3
		c0.1,1.7,1.4,3,3.1,3c0.3,0,0.6-0.1,0.9-0.1V33H13c-2.8,0-5,2.2-5,5v1.1C5.2,39.6,3,42,3,45c0,1.9,0.9,3.7,2.4,4.8
		C2.2,51.2,0,54.3,0,58v4h18v-4c0-3.7-2.2-6.8-5.4-8.2c1.4-1.1,2.4-2.8,2.4-4.8c0-3-2.2-5.4-5-5.9V38c0-1.7,1.3-3,3-3h17v4.1
		c-2.8,0.5-5,2.9-5,5.9c0,1.9,0.9,3.7,2.4,4.8C24.2,51.2,22,54.3,22,58v4h18v-4c0-3.7-2.2-6.8-5.4-8.2c1.4-1.1,2.4-2.8,2.4-4.8
		c0-3-2.2-5.4-5-5.9V35h17c1.7,0,3,1.3,3,3v1.1c-2.8,0.5-5,2.9-5,5.9c0,1.9,0.9,3.7,2.4,4.8C46.2,51.2,44,54.3,44,58v4h18v-4
		C62,54.3,59.8,51.2,56.6,49.8z M37.5,2C41.6,2,45,5.4,45,9.5c0,1.7-0.5,3.2-1.5,4.6l-4.6-4.6c0.3-0.2,0.6-0.5,0.9-0.7l-1.4-1.4
		C37.2,8.4,35.7,9,34.2,9h-1.6l-1.7,1.7c-0.2,0.2-0.4,0.3-0.7,0.3h-3.8c-0.2,0-0.4-0.2-0.4-0.4c0-0.1,0-0.2,0.1-0.3l6.1-6.1
		C33.6,2.8,35.5,2,37.5,2z M24.5,2c1.9,0,3.7,0.7,5.1,2l-4.9,4.9C24.3,9.3,24,9.9,24,10.6c0,1.3,1.1,2.4,2.4,2.4h3.8
		c0.8,0,1.6-0.3,2.1-0.9l1.1-1.1h0.8c1,0,2-0.2,2.9-0.5l6.6,6.6c0.2,0.2,0.3,0.5,0.3,0.8c0,0.6-0.5,1.1-1.1,1.1
		c-0.3,0-0.6-0.1-0.8-0.3l-2.4-2.4l-1.4,1.4l2.4,2.4c0.2,0.2,0.3,0.5,0.3,0.8c0,0.6-0.5,1.1-1.1,1.1c-0.3,0-0.6-0.1-0.8-0.3
		l-2.4-2.4l-1.4,1.4l2.4,2.4c0.2,0.2,0.3,0.5,0.3,0.8c0,0.6-0.5,1.1-1.1,1.1c-0.3,0-0.6-0.1-0.8-0.3l-2.4-2.4l-1.4,1.4l2.4,2.4
		c0.2,0.2,0.3,0.5,0.3,0.8c0,0.6-0.5,1.1-1.1,1.1c-0.3,0-0.6-0.1-0.8-0.3l-0.3-0.3c0.2-0.4,0.2-0.8,0.2-1.2c0-1.7-1.3-3.1-3-3.1
		c-0.1-1.6-1.4-2.9-3-3c-0.1-1.6-1.4-2.9-3-3c-0.1-1.7-1.4-3-3.1-3c-0.7,0-1.3,0.2-1.8,0.6c-1.3-1.4-2-3.2-2-5.1
		C17,5.4,20.4,2,24.5,2z M19,17.9c0-0.3,0.1-0.6,0.3-0.8l0.8-0.8c0.2-0.2,0.5-0.3,0.8-0.3c0.6,0,1.1,0.5,1.1,1.1
		c0,0.3-0.1,0.6-0.3,0.8l-0.8,0.8c-0.2,0.2-0.5,0.3-0.8,0.3C19.5,19,19,18.5,19,17.9z M22,20.9c0-0.3,0.1-0.6,0.3-0.8l0.8-0.8
		c0.2-0.2,0.5-0.3,0.8-0.3c0.6,0,1.1,0.5,1.1,1.1c0,0.3-0.1,0.6-0.3,0.8l-0.8,0.8c-0.2,0.2-0.5,0.3-0.8,0.3C22.5,22,22,21.5,22,20.9
		z M25,23.9c0-0.3,0.1-0.6,0.3-0.8l0.8-0.8c0.2-0.2,0.5-0.3,0.8-0.3c0.6,0,1.1,0.5,1.1,1.1c0,0.3-0.1,0.6-0.3,0.8l-0.8,0.8
		c-0.2,0.2-0.5,0.3-0.8,0.3C25.5,25,25,24.5,25,23.9z M29.1,28c-0.6,0-1.1-0.5-1.1-1.1c0-0.3,0.1-0.6,0.3-0.8l0.8-0.8
		c0.2-0.2,0.5-0.3,0.8-0.3c0.6,0,1.1,0.5,1.1,1.1c0,0.3-0.1,0.6-0.3,0.8l-0.8,0.8C29.7,27.9,29.4,28,29.1,28z M16,58v2h-2v-4h-2v4H6
		v-4H4v4H2v-2c0-3.9,3.1-7,7-7S16,54.1,16,58z M13,45c0,2.2-1.8,4-4,4s-4-1.8-4-4s1.8-4,4-4S13,42.8,13,45z M38,58v2h-2v-4h-2v4h-6
		v-4h-2v4h-2v-2c0-3.9,3.1-7,7-7S38,54.1,38,58z M35,45c0,2.2-1.8,4-4,4s-4-1.8-4-4s1.8-4,4-4S35,42.8,35,45z M49,45
		c0-2.2,1.8-4,4-4s4,1.8,4,4s-1.8,4-4,4S49,47.2,49,45z M60,60h-2v-4h-2v4h-6v-4h-2v4h-2v-2c0-3.9,3.1-7,7-7s7,3.1,7,7V60z"/>
	<rect x="37" y="37" width="2" height="2"/>
	<rect x="41" y="37" width="2" height="2"/>
	<rect x="45" y="37" width="2" height="2"/>
	<rect x="15" y="37" width="2" height="2"/>
	<rect x="19" y="37" width="2" height="2"/>
	<rect x="23" y="37" width="2" height="2"/>
</g>
</svg>
