<?xml version="1.0" encoding="utf-8"?>
<!-- Generator: Adobe Illustrator 25.0.0, SVG Export Plug-In . SVG Version: 6.00 Build 0)  -->
<svg version="1.1" id="Layer_1" xmlns="http://www.w3.org/2000/svg" xmlns:xlink="http://www.w3.org/1999/xlink" x="0px" y="0px"
	 viewBox="0 0 62 56.1" style="enable-background:new 0 0 62 56.1;" xml:space="preserve">
<g>
	<path d="M57,16.1H38.7c0.2-0.6,0.3-1.3,0.3-2v-6c0-2.8-2.2-5-5-5h-6c-2.8,0-5,2.2-5,5v6c0,0.7,0.1,1.4,0.3,2H5c-2.8,0-5,2.2-5,5v30
		c0,2.8,2.2,5,5,5h52c2.8,0,5-2.2,5-5v-30C62,18.3,59.8,16.1,57,16.1z M32.7,5.1l-0.5,2h-2.4l-0.5-2H32.7z M25,8.1
		c0-1.4,1-2.6,2.2-2.9l1,3.9h5.6l1-3.9C36,5.5,37,6.7,37,8.1v6c0,1.2-0.4,2.3-1,3.3l-1.5-2.3h-7.1L26,17.3c-0.6-0.9-1-2.1-1-3.3V8.1
		z M31,20.1c-1.4,0-2.6-0.5-3.6-1.2l1.2-1.8h4.9l1.2,1.8C33.6,19.6,32.4,20.1,31,20.1z M27,21v1.3l-5,1.2c-1.8,0.4-3,2-3,3.9v5.7h2
		v-5.7c0-0.9,0.6-1.7,1.5-1.9l6.5-1.6v-2c0.6,0.2,1.3,0.3,2,0.3c0.7,0,1.4-0.1,2-0.3v2l6.5,1.6c0.9,0.2,1.5,1,1.5,1.9v5.7h2v-5.7
		c0-1.8-1.2-3.4-3-3.9l-5-1.2V21c1.2-0.7,2.2-1.7,2.9-2.9H52v36H10v-36h14.1C24.8,19.3,25.8,20.3,27,21z M2,51.1v-30
		c0-1.7,1.3-3,3-3h3v36H5C3.3,54.1,2,52.7,2,51.1z M60,51.1c0,1.7-1.3,3-3,3h-3v-36h3c1.7,0,3,1.3,3,3V51.1z"/>
	<polygon points="28.7,35.2 31.8,43.4 35.6,37.1 46,37.1 46,35.1 34.4,35.1 32.2,38.8 29.3,30.9 26.5,35.1 16,35.1 16,37.1 
		27.5,37.1 	"/>
	<rect x="27" y="11.1" width="2" height="2"/>
	<rect x="33" y="11.1" width="2" height="2"/>
	<path d="M19.8,11.3l1.4-1.4C20.4,9.1,20,8.1,20,7.1s0.4-2.1,1.2-2.8l-1.4-1.4C18.6,4,18,5.5,18,7.1S18.6,10.2,19.8,11.3z"/>
	<path d="M18.3,12.7C16.8,11.2,16,9.2,16,7.1s0.8-4.1,2.3-5.7L16.9,0C15,1.9,14,4.4,14,7.1s1,5.2,2.9,7.1L18.3,12.7z"/>
	<path d="M42.2,11.3c1.1-1.1,1.8-2.6,1.8-4.2S43.4,4,42.2,2.8l-1.4,1.4C41.6,5,42,6,42,7.1s-0.4,2.1-1.2,2.8L42.2,11.3z"/>
	<path d="M43.7,12.7l1.4,1.4C47,12.3,48,9.7,48,7.1S47,1.9,45.1,0l-1.4,1.4C45.2,2.9,46,4.9,46,7.1S45.2,11.2,43.7,12.7z"/>
	<rect x="4" y="31.1" width="2" height="10"/>
	<rect x="56" y="31.1" width="2" height="10"/>
	<rect x="56" y="27.1" width="2" height="2"/>
	<rect x="56" y="43.1" width="2" height="2"/>
	<rect x="48" y="35.1" width="2" height="2"/>
	<rect x="12" y="35.1" width="2" height="2"/>
</g>
</svg>
