<?xml version="1.0" encoding="utf-8"?>
<!-- Generator: Adobe Illustrator 25.0.0, SVG Export Plug-In . SVG Version: 6.00 Build 0)  -->
<svg version="1.1" id="Layer_1" xmlns="http://www.w3.org/2000/svg" xmlns:xlink="http://www.w3.org/1999/xlink" x="0px" y="0px"
	 viewBox="0 0 62 62" style="enable-background:new 0 0 62 62;" xml:space="preserve">
<g>
	<path d="M57,16H40V9c0-1.7-1.3-3-3-3h-5.2c-0.4-1.2-1.5-2-2.8-2h-1V3c0-1.7-1.3-3-3-3H15c-1.7,0-3,1.3-3,3v1h-1
		C9.7,4,8.6,4.8,8.2,6H3C1.3,6,0,7.3,0,9v44c0,1.7,1.3,3,3,3h17v3c0,1.7,1.3,3,3,3h28c1.7,0,3-1.3,3-3V35c0-1.7-1.3-3-3-3H40v-6h17
		c2.8,0,5-2.2,5-5S59.8,16,57,16z M38,36v2h-2v-2h-2v2h-2v-4h10v4h-2v-2H38z M23,32c-1.3,0-2.4,0.8-2.8,2H8v14h12v2H6V12h2.2
		c0.4,1.2,1.5,2,2.8,2h18c1.3,0,2.4-0.8,2.8-2H34v4h-5.2l-7.2,2.7C20.6,19.1,20,20,20,21s0.6,1.9,1.6,2.3l7.2,2.7H34v6H23z M20,36
		v10H10V36H20z M22.3,21.4C22.1,21.4,22,21.2,22,21s0.1-0.4,0.3-0.4l5.7-2.1v5.1L22.3,21.4z M30,24v-2h20v2H30z M50,20H30v-2h20V20z
		 M38,9v7h-2v-6h-4V8h5C37.6,8,38,8.4,38,9z M14,3c0-0.6,0.4-1,1-1h10c0.6,0,1,0.4,1,1v1H14V3z M10,7c0-0.6,0.4-1,1-1h18
		c0.6,0,1,0.4,1,1v4c0,0.6-0.4,1-1,1H11c-0.6,0-1-0.4-1-1V7z M3,54c-0.6,0-1-0.4-1-1V9c0-0.6,0.4-1,1-1h5v2H4v42h16v2H3z M52,35v24
		c0,0.6-0.4,1-1,1H23c-0.6,0-1-0.4-1-1V35c0-0.6,0.4-1,1-1h7v6h14v-6h7C51.6,34,52,34.4,52,35z M38,32h-2v-6h2V32z M57,24h-5v-6h5
		c1.7,0,3,1.3,3,3S58.7,24,57,24z"/>
	<rect x="24" y="56" width="12" height="2"/>
	<rect x="24" y="52" width="10" height="2"/>
	<rect x="12" y="8" width="2" height="2"/>
	<rect x="26" y="8" width="2" height="2"/>
	<rect x="8" y="16" width="10" height="2"/>
	<rect x="8" y="20" width="10" height="2"/>
	<rect x="8" y="24" width="10" height="2"/>
	<rect x="8" y="28" width="10" height="2"/>
</g>
</svg>
