<?xml version="1.0" encoding="utf-8"?>
<!-- Generator: Adobe Illustrator 25.0.0, SVG Export Plug-In . SVG Version: 6.00 Build 0)  -->
<svg version="1.1" id="Layer_1" xmlns="http://www.w3.org/2000/svg" xmlns:xlink="http://www.w3.org/1999/xlink" x="0px" y="0px"
	 viewBox="0 0 62 62" style="enable-background:new 0 0 62 62;" xml:space="preserve">
<g>
	<path d="M57,10H42c0-5.5-4.5-10-10-10S22,4.5,22,10H5c-2.8,0-5,2.2-5,5v30c0,2.8,2.2,5,5,5h17.4l-2,4H19c-2.8,0-5,2.2-5,5v3h34v-3
		c0-2.8-2.2-5-5-5h-1.4l-2-4H57c2.8,0,5-2.2,5-5V15C62,12.2,59.8,10,57,10z M32,2c4.4,0,8,3.6,8,8c0,1.9-0.7,3.6-1.8,5
		c-0.8-1-1.8-1.8-2.9-2.3c1-0.9,1.7-2.2,1.7-3.7c0-2.8-2.2-5-5-5s-5,2.2-5,5c0,1.5,0.7,2.8,1.7,3.7c-1.1,0.5-2.1,1.3-2.9,2.3
		c-1.1-1.4-1.8-3.1-1.8-5C24,5.6,27.6,2,32,2z M18,28c-2.2,0-4-1.8-4-4s1.8-4,4-4s4,1.8,4,4S20.2,28,18,28z M25.9,36H10.1
		c0.5-3.4,3.4-6,6.9-6h2C22.5,30,25.4,32.6,25.9,36z M20.2,18.4C19.5,18.1,18.8,18,18,18c-3.3,0-6,2.7-6,6c0,1.8,0.8,3.4,2.1,4.5
		C10.5,29.7,8,33.1,8,37v1h20v-1c0-1.1-0.2-2.1-0.5-3h7.4c1.5,3.5,5.1,6,9.2,6c5.5,0,10-4.5,10-10s-4.5-10-10-10s-10,4.5-10,10
		c0,0.7,0.1,1.4,0.2,2h-7.7c-1.1-1.6-2.7-2.8-4.5-3.5c1.3-1.1,2.1-2.7,2.1-4.5c0-1.8-0.8-3.4-2.1-4.5l2.7-2.7c1.8,2,4.4,3.2,7.3,3.2
		c3.3,0,6.2-1.6,8-4h16v26H20.4L19,40.6c-0.4-0.4-0.9-0.6-1.4-0.6H6V16h16.6L20.2,18.4z M44,34c1.9,0,3.7,0.9,4.8,2.4
		c-1.3,1-3,1.6-4.8,1.6s-3.5-0.6-4.8-1.6C40.3,34.9,42.1,34,44,34z M41,29c0-1.7,1.3-3,3-3s3,1.3,3,3s-1.3,3-3,3S41,30.7,41,29z
		 M47.3,32.7c1-0.9,1.7-2.2,1.7-3.7c0-2.8-2.2-5-5-5s-5,2.2-5,5c0,1.5,0.7,2.8,1.7,3.7c-1.1,0.5-2.1,1.3-2.9,2.3
		c-1.1-1.4-1.8-3.1-1.8-5c0-4.4,3.6-8,8-8s8,3.6,8,8c0,1.9-0.7,3.6-1.8,5C49.4,34,48.4,33.2,47.3,32.7z M32,14
		c1.9,0,3.7,0.9,4.8,2.4c-1.3,1-3,1.6-4.8,1.6s-3.5-0.6-4.8-1.6C28.3,14.9,30.1,14,32,14z M29,9c0-1.7,1.3-3,3-3s3,1.3,3,3
		s-1.3,3-3,3S29,10.7,29,9z M43,56c1.7,0,3,1.3,3,3v1H16v-1c0-1.7,1.3-3,3-3H43z M22.6,54l2-4h12.8l2,4H22.6z M60,45
		c0,1.7-1.3,3-3,3H5c-1.7,0-3-1.3-3-3V15c0-1.7,1.3-3,3-3h17.2c0.1,0.7,0.4,1.4,0.6,2H6c-1.1,0-2,0.9-2,2v24c0,1.1,0.9,2,2,2h11.6
		l1.4,1.4c0.4,0.4,0.9,0.6,1.4,0.6H56c1.1,0,2-0.9,2-2V16c0-1.1-0.9-2-2-2H41.2c0.3-0.6,0.5-1.3,0.6-2H57c1.7,0,3,1.3,3,3V45z"/>
	<rect x="6" y="44" width="2" height="2"/>
	<rect x="10" y="44" width="2" height="2"/>
	<rect x="14" y="44" width="2" height="2"/>
	<rect x="8" y="18" width="2" height="2"/>
	<rect x="8" y="22" width="2" height="2"/>
	<rect x="8" y="26" width="2" height="2"/>
</g>
</svg>
